<svg width="60" height="60" viewBox="0 0 60 60" fill="none" xmlns="http://www.w3.org/2000/svg">
<path d="M12.5 30H10V50C10 51.3261 10.5268 52.5979 11.4645 53.5355C12.4021 54.4732 13.6739 55 15 55H27.5V30H12.5ZM45 30H32.5V55H45C46.3261 55 47.5979 54.4732 48.5355 53.5355C49.4732 52.5979 50 51.3261 50 50V30H45ZM46.9775 17.5C47.3442 16.2845 47.5204 15.0195 47.5 13.75C47.5 8.925 43.575 5 38.75 5C34.695 5 31.9875 8.705 30.24 12.7125C28.5175 8.925 25.6725 5 21.25 5C16.425 5 12.5 8.925 12.5 13.75C12.5 15.24 12.6975 16.4725 13.0225 17.5H5V27.5H27.5V22.5H32.5V27.5H55V17.5H46.9775ZM17.5 13.75C17.5 11.6825 19.1825 10 21.25 10C23.47 10 25.535 13.8125 26.745 17.5H20C19.065 17.5 17.5 17.5 17.5 13.75ZM38.75 10C40.8175 10 42.5 11.6825 42.5 13.75C42.5 17.5 40.935 17.5 40 17.5H33.8075C35.0825 13.56 36.935 10 38.75 10Z" fill="#FBD6B9"/>
</svg>
