<svg width="61" height="61" viewBox="0 0 61 61" fill="none" xmlns="http://www.w3.org/2000/svg">
<path d="M45.3758 45.1243C44.8118 41.5333 42.9755 38.2649 40.202 35.9153C37.4285 33.5657 33.9027 32.2916 30.2679 32.3255C25.705 32.3457 21.2865 30.7274 17.8159 27.7651C14.3453 24.8027 12.0534 20.693 11.3569 16.1835L10.3776 9.71653C10.1791 9.8932 9.98035 10.0449 9.78204 10.2465C1.70067 18.4646 4.28183 34.0935 15.5254 45.1996C25.2045 54.5938 37.9809 57.6867 46.5937 53.2143L45.3758 45.1243Z" fill="#FBD6B9"/>
<path d="M30.2352 28.4257C34.7973 28.4038 39.2161 30.0176 42.6902 32.9745C46.1643 35.9314 48.4636 40.0355 49.1711 44.5424L50.0976 50.6849L50.5194 50.3063C58.6008 42.0882 56.0447 26.4591 44.8011 15.353C35.3224 6.0072 22.5202 2.81445 14.0322 7.26079L15.3022 15.6004C15.8511 19.1685 17.6581 22.4227 20.3968 24.7748C23.1355 27.1269 26.6251 28.4218 30.2352 28.4257Z" fill="#FBD6B9"/>
</svg>
