<svg width="60" height="50" viewBox="0 0 60 50" fill="none" xmlns="http://www.w3.org/2000/svg">
<g clip-path="url(#clip0_8_125)">
<path d="M58.5 34.375H57V23.8184C57 22.5781 56.5219 21.3867 55.6781 20.5078L46.3125 10.752C45.4688 9.87305 44.325 9.375 43.1344 9.375H39V4.6875C39 2.09961 36.9844 0 34.5 0H10.5C8.01562 0 6 2.09961 6 4.6875V9.375H0.75C0.3375 9.375 0 9.72656 0 10.1562V11.7188C0 12.1484 0.3375 12.5 0.75 12.5H26.25C26.6625 12.5 27 12.8516 27 13.2812V14.8438C27 15.2734 26.6625 15.625 26.25 15.625H3.75C3.3375 15.625 3 15.9766 3 16.4062V17.9688C3 18.3984 3.3375 18.75 3.75 18.75H23.25C23.6625 18.75 24 19.1016 24 19.5312V21.0938C24 21.5234 23.6625 21.875 23.25 21.875H0.75C0.3375 21.875 0 22.2266 0 22.6562V24.2188C0 24.6484 0.3375 25 0.75 25H20.25C20.6625 25 21 25.3516 21 25.7812V27.3438C21 27.7734 20.6625 28.125 20.25 28.125H6V40.625C6 45.8008 10.0312 50 15 50C19.9688 50 24 45.8008 24 40.625H36C36 45.8008 40.0312 50 45 50C49.9688 50 54 45.8008 54 40.625H58.5C59.325 40.625 60 39.9219 60 39.0625V35.9375C60 35.0781 59.325 34.375 58.5 34.375ZM15 45.3125C12.5156 45.3125 10.5 43.2129 10.5 40.625C10.5 38.0371 12.5156 35.9375 15 35.9375C17.4844 35.9375 19.5 38.0371 19.5 40.625C19.5 43.2129 17.4844 45.3125 15 45.3125ZM45 45.3125C42.5156 45.3125 40.5 43.2129 40.5 40.625C40.5 38.0371 42.5156 35.9375 45 35.9375C47.4844 35.9375 49.5 38.0371 49.5 40.625C49.5 43.2129 47.4844 45.3125 45 45.3125ZM52.5 25H39V14.0625H43.1344L52.5 23.8184V25Z" fill="#FBD6B9"/>
</g>
<defs>
<clipPath id="clip0_8_125">
<rect width="60" height="50" fill="white"/>
</clipPath>
</defs>
</svg>
