<svg width="50" height="50" viewBox="0 0 50 50" fill="none" xmlns="http://www.w3.org/2000/svg">
<path d="M7.5 25H5V45C5 46.3261 5.52678 47.5979 6.46447 48.5355C7.40215 49.4732 8.67392 50 10 50H22.5V25H7.5ZM40 25H27.5V50H40C41.3261 50 42.5979 49.4732 43.5355 48.5355C44.4732 47.5979 45 46.3261 45 45V25H40ZM41.9775 12.5C42.3442 11.2845 42.5204 10.0195 42.5 8.75C42.5 3.925 38.575 0 33.75 0C29.695 0 26.9875 3.705 25.24 7.7125C23.5175 3.925 20.6725 0 16.25 0C11.425 0 7.5 3.925 7.5 8.75C7.5 10.24 7.6975 11.4725 8.0225 12.5H0V22.5H22.5V17.5H27.5V22.5H50V12.5H41.9775ZM12.5 8.75C12.5 6.6825 14.1825 5 16.25 5C18.47 5 20.535 8.8125 21.745 12.5H15C14.065 12.5 12.5 12.5 12.5 8.75ZM33.75 5C35.8175 5 37.5 6.6825 37.5 8.75C37.5 12.5 35.935 12.5 35 12.5H28.8075C30.0825 8.56 31.935 5 33.75 5Z" fill="#FBD6B9"/>
</svg>
